# xmcd CD database file
#
# Track frame offsets:
#	150
#	16082
#	30987
#	49292
#	69503
#	88644
#	99538
#	114642
#	124854
#	137576
#	155454
#	174619
#	200277
#	211795
#	226271
#	246291
#
# Disc length: 3653 seconds
#
# Revision: 0
# Processed by: cddbd v1.5.2PL0 Copyright (c) Steve Scherf et al.
# Submitted via: CDex 1.70beta2
#
DISCID=cf0e4310
DTITLE=Various Artist - Crossover Collection 2
DYEAR=2008
DGENRE=New Age
TTITLE0=Secret Garden - Song From A Secret Garden
TTITLE1=Sissel - Eg Ser
TTITLE2=Elton John - Your Song
TTITLE3=Diana Ross and Linonel Richie - Endless Love
TTITLE4=James Last - Over Valley And Mountain
TTITLE5=Nana Mouskouri - Me T'aspro Mou Mantili
TTITLE6=Engelbert Humperdinck - Release Me
TTITLE7=Pat Boone - Love Letters In The Sand
TTITLE8=Sarah Vaughan - A Lover's Concerto
TTITLE9=Moody Blues - For My Lady
TTITLE10=Chris De Burgh - The Girl With April In Her Eyes
TTITLE11=The Velvet Underground - Pale Blue Eyes
TTITLE12=Mantovani - Moon River
TTITLE13=Secret Garden - Nocturne
TTITLE14=Gheorghe Zamfir - The Lonely Shepherd
TTITLE15=Chuck Mangione - Give It All You Got
EXTD=YEAR: 2008
EXTT0=
EXTT1=
EXTT2=
EXTT3=
EXTT4=
EXTT5=
EXTT6=
EXTT7=
EXTT8=
EXTT9=
EXTT10=
EXTT11=
EXTT12=
EXTT13=
EXTT14=
EXTT15=
PLAYORDER=
